<?xml version="1.0" encoding="iso-8859-1"?>
<!-- Uploaded to: SVG Repo, www.svgrepo.com, Generator: SVG Repo Mixer Tools -->
<svg height="800px" width="800px" version="1.1" id="Layer_1" xmlns="http://www.w3.org/2000/svg" xmlns:xlink="http://www.w3.org/1999/xlink" 
	 viewBox="0 0 512 512" xml:space="preserve">
<path style="fill:#4D4D4D;" d="M400.602,55.652c-38.191,0-73.554,20.755-92.288,54.163c-4.506,8.038-1.642,18.217,6.402,22.723
	c0.238,0.134,0.288,0.402,0.439,0.601c51.761,19.019,91.882,62.053,106.809,115.634c0.177,0.187,0.444,0.314,0.552,0.548
	c2.815,6.114,8.859,9.722,15.18,9.722c2.332,0,4.707-0.494,6.968-1.533c37.467-17.233,61.679-54.968,61.679-96.119
	C506.341,103.087,458.906,55.652,400.602,55.652z"/>
<path style="fill:#2D2D30;" d="M421.963,248.773c0.177,0.187,0.444,0.314,0.552,0.548c2.815,6.114,8.859,9.722,15.18,9.722
	c2.332,0,4.707-0.494,6.968-1.533c37.467-17.233,61.679-54.968,61.679-96.119c0-29.152-11.858-55.587-31.005-74.734l-92.228,92.228
	C401.081,198.558,414.606,222.364,421.963,248.773z"/>
<g>
	<path style="fill:#4D4D4D;" d="M256.093,122.435c-9.223,0-16.696-7.473-16.696-16.696V50.087c0-9.223,7.473-16.696,16.696-16.696
		c9.223,0,16.696,7.473,16.696,16.696v55.652C272.789,114.962,265.316,122.435,256.093,122.435z"/>
	<path style="fill:#4D4D4D;" d="M255.906,55.652c-15.342,0-27.826-12.484-27.826-27.826S240.564,0,255.906,0
		s27.826,12.484,27.826,27.826S271.248,55.652,255.906,55.652z"/>
	<path style="fill:#4D4D4D;" d="M77.819,512c-4.272,0-8.544-1.631-11.804-4.892c-6.521-6.516-6.521-17.092,0-23.609l55.94-55.94
		c6.521-6.521,17.087-6.521,23.609,0c6.521,6.516,6.521,17.092,0,23.609l-55.94,55.94C86.363,510.369,82.091,512,77.819,512z"/>
</g>
<path style="fill:#2D2D30;" d="M433.993,512c-4.272,0-8.544-1.631-11.804-4.892l-55.94-55.94c-6.521-6.516-6.521-17.092,0-23.609
	c6.521-6.521,17.087-6.521,23.609,0l55.94,55.94c6.521,6.516,6.521,17.092,0,23.609C442.537,510.369,438.265,512,433.993,512z"/>
<path style="fill:#4D4D4D;" d="M111.397,55.652c38.191,0,73.554,20.755,92.288,54.163c4.506,8.038,1.642,18.217-6.402,22.723
	c-0.238,0.134-0.288,0.402-0.439,0.601c-51.761,19.019-91.882,62.053-106.809,115.634c-0.177,0.187-0.444,0.314-0.552,0.548
	c-2.815,6.114-8.859,9.722-15.18,9.722c-2.332,0-4.707-0.494-6.968-1.533C29.87,240.277,5.658,202.544,5.658,161.391
	C5.658,103.087,53.093,55.652,111.397,55.652z"/>
<path style="fill:#2D2D30;" d="M90.036,248.773c-0.177,0.187-0.444,0.314-0.552,0.548c-2.815,6.114-8.859,9.722-15.18,9.722
	c-2.332,0-4.707-0.494-6.968-1.533C29.87,240.277,5.658,202.544,5.658,161.391c0-29.152,11.858-55.587,31.005-74.734l92.228,92.228
	C110.918,198.558,97.393,222.364,90.036,248.773z"/>
<path style="fill:#FF0C38;" d="M255.906,500.87c-113.544,0-205.913-92.369-205.913-205.913S142.362,89.043,255.906,89.043
	s205.913,92.369,205.913,205.913S369.449,500.87,255.906,500.87z"/>
<path style="fill:#D80027;" d="M462.006,294.957c0-113.544-92.383-205.913-205.913-205.913V500.87
	C369.623,500.87,462.006,408.5,462.006,294.957z"/>
<path style="fill:#FFFFFF;" d="M255.906,434.087c-76.718,0-139.13-62.413-139.13-139.13s62.413-139.13,139.13-139.13
	s139.13,62.413,139.13,139.13S332.624,434.087,255.906,434.087z"/>
<path style="fill:#E3EDED;" d="M256.093,155.826v278.261c76.8,0,139.13-62.413,139.13-139.13S332.893,155.826,256.093,155.826z"/>
<path style="fill:#57565C;" d="M300.428,311.652h-44.522c-9.223,0-16.508-7.473-16.508-16.696v-66.783
	c0-9.223,7.473-16.696,16.696-16.696c9.223,0,16.696,7.473,16.696,16.696v50.087h27.638c9.223,0,16.696,7.473,16.696,16.696
	S309.65,311.652,300.428,311.652z"/>
</svg>